<svg id="Layer_1" data-name="Layer 1" xmlns="http://www.w3.org/2000/svg" viewBox="0 0 1000 953.77"><defs><style>.cls-1{fill:#0c7b93;}.cls-2{fill:#83b9ff;}.cls-3{fill:#10151b;}</style></defs><path class="cls-1" d="M810.38,263.35A509.74,509.74,0,0,1,806.73,324c0,.12,0,.24,0,.36-.19,1.62-.39,3.24-.6,4.84l-.66,5c0,.12,0,.24-.06.36-.19,1.38-.38,2.74-.59,4.13-.09.63-.19,1.27-.29,1.91-.2,1.35-.42,2.71-.64,4.07a.47.47,0,0,1,0,.16c0,.18-.06.37-.09.55q-.43,2.72-.9,5.42c0,.22-.06.45-.11.67-.35,2-.72,4.09-1.1,6.14q-1.12,6.11-2.4,12.19c0,.2-.07.38-.12.58-.39,1.86-.78,3.73-1.19,5.58a.74.74,0,0,0,0,.14q-.23,1.06-.48,2.13c-.31,1.42-.64,2.84-1,4.26-.12.54-.25,1.08-.38,1.62-.3,1.3-.62,2.59-.94,3.88q-.27,1.17-.57,2.34c-.3,1.25-.63,2.49-.95,3.74-.2.8-.41,1.61-.61,2.4a.58.58,0,0,0-.05.16q-.69,2.69-1.43,5.36-.84,3.13-1.74,6.27c-.38,1.34-.78,2.69-1.18,4-.06.24-.13.47-.21.72-.22.79-.46,1.59-.7,2.38-.06.22-.13.44-.19.66-.37,1.24-.75,2.48-1.14,3.71-.31,1-.62,2-1,3,0,.14-.08.26-.12.39-.19.63-.4,1.27-.6,1.9,0,.14-.09.29-.13.42-.26.83-.53,1.66-.81,2.5l0,.1c-.48,1.48-1,3-1.46,4.43a7.58,7.58,0,0,1-.26.76c-.12.34-.23.69-.35,1q-.69,2.07-1.41,4.14c-.08.21-.14.41-.22.63h0a.16.16,0,0,1,0,.1v0c-.7,2-1.43,4.06-2.15,6.08,0,0,0,.1,0,.14C718.53,601.14,589,727.94,438.81,759.92L-83.81,871.17V36.22L438.81-75C589-107,718.53-35.33,777.75,95.11c0,0,0,.08,0,.12.72,1.7,1.45,3.43,2.15,5.16,0,0,0,0,0,0a.1.1,0,0,1,0,.08h0c.08.18.14.36.22.54q.72,1.75,1.41,3.54c.12.28.23.59.35.87a6,6,0,0,1,.26.66c.5,1.26,1,2.53,1.46,3.8l0,.1c.28.71.55,1.43.81,2.15l.13.36c.2.54.41,1.1.6,1.65l.12.33c.33.87.64,1.75,1,2.64.39,1.07.77,2.15,1.14,3.23.06.19.13.39.19.57.24.69.48,1.39.7,2.09q.12.32.21.63c.4,1.18.8,2.36,1.18,3.54q.9,2.75,1.74,5.53.74,2.35,1.43,4.74a.34.34,0,0,0,.05.14c.2.71.41,1.43.61,2.15.32,1.1.65,2.21.95,3.33.2.7.39,1.39.57,2.09.32,1.16.64,2.32.94,3.49.13.49.26,1,.38,1.46.33,1.28.66,2.56,1,3.84q.26,1,.48,1.92a.5.5,0,0,0,0,.13c.41,1.68.8,3.38,1.19,5.07,0,.18.08.35.12.53q1.28,5.54,2.4,11.18c.38,1.88.75,3.76,1.1,5.66a6.37,6.37,0,0,1,.11.63c.31,1.67.61,3.34.9,5,0,.17,0,.35.09.52a.39.39,0,0,1,0,.15c.22,1.26.44,2.53.64,3.8.1.59.2,1.19.29,1.79.21,1.29.4,2.57.59,3.87,0,.11,0,.23.06.34.22,1.55.44,3.12.66,4.68s.41,3.05.6,4.59c0,.1,0,.23,0,.34A471.64,471.64,0,0,1,810.38,263.35Z" transform="translate(83.81 82.6)"/><path class="cls-2" d="M916.19,453.69a440,440,0,0,1-4.08,59.91,2,2,0,0,1-.05.35c-.21,1.58-.43,3.15-.67,4.72s-.49,3.22-.74,4.82l-.06.35c-.21,1.34-.43,2.66-.66,4-.1.61-.22,1.24-.33,1.85-.22,1.31-.46,2.63-.71,3.94a.27.27,0,0,1,0,.15c0,.17-.06.36-.1.54-.32,1.75-.66,3.48-1,5.22,0,.21-.07.44-.12.65-.4,2-.81,3.94-1.24,5.9-.84,3.91-1.72,7.81-2.67,11.69l-.14.55c-.44,1.77-.88,3.56-1.34,5.32a.74.74,0,0,1,0,.14c-.17.68-.35,1.35-.53,2-.35,1.35-.72,2.7-1.09,4-.14.51-.28,1-.43,1.53q-.49,1.86-1,3.69c-.2.74-.41,1.48-.63,2.21-.34,1.19-.7,2.37-1.07,3.54-.22.76-.46,1.53-.68,2.28a.44.44,0,0,0-.05.15c-.52,1.68-1,3.37-1.6,5.05-.63,2-1.28,3.93-2,5.9q-.64,1.89-1.32,3.78c-.07.23-.15.45-.23.68-.25.75-.52,1.5-.79,2.24-.06.2-.14.41-.21.61-.42,1.16-.84,2.32-1.28,3.47-.34,1-.69,1.9-1.06,2.84,0,.13-.09.24-.13.36-.21.59-.45,1.19-.67,1.78-.05.12-.1.26-.15.39-.29.77-.59,1.55-.9,2.32,0,0,0,.06,0,.1-.54,1.38-1.07,2.75-1.62,4.11q-.13.36-.3.72c-.13.31-.25.63-.39,1-.51,1.28-1,2.56-1.58,3.83-.08.2-.16.39-.25.59h0a.19.19,0,0,1,0,.09l0,0c-.78,1.89-1.6,3.76-2.41,5.62,0,0,0,.09,0,.13-66.22,143-211.05,242.29-379.05,242.29H-83.81V36.22H500.65c168,0,312.83,99.23,379.05,242.28,0,0,0,.09,0,.13.81,1.86,1.63,3.74,2.41,5.62,0,0,0,0,0,0a.19.19,0,0,1,0,.09h0c.09.2.17.39.25.59.54,1.27,1.07,2.55,1.58,3.84.14.31.26.63.39.95s.21.47.3.71c.55,1.36,1.08,2.74,1.62,4.11,0,0,0,.06,0,.1.31.78.61,1.55.9,2.33l.15.38c.22.59.46,1.19.67,1.78l.13.36c.37.94.72,1.89,1.06,2.84.44,1.15.86,2.31,1.28,3.47.07.2.15.42.21.62.27.73.54,1.48.79,2.23.08.23.16.45.23.68.45,1.26.89,2.52,1.32,3.79.67,2,1.32,3.92,2,5.9.55,1.67,1.08,3.36,1.6,5.05a.44.44,0,0,0,.05.15c.22.75.46,1.51.68,2.27.37,1.18.73,2.35,1.07,3.54.22.74.43,1.47.63,2.21.37,1.23.72,2.45,1,3.69.15.51.29,1,.43,1.54.37,1.35.74,2.7,1.09,4.05.18.67.36,1.35.53,2a.74.74,0,0,1,0,.14c.46,1.76.9,3.55,1.34,5.32,0,.19.09.37.14.55.95,3.88,1.83,7.78,2.67,11.69q.65,2.94,1.24,5.9c.05.21.09.44.12.65.34,1.74.68,3.48,1,5.23,0,.17.07.36.1.53a.27.27,0,0,1,0,.15c.25,1.32.49,2.63.71,3.94.11.61.23,1.24.33,1.85.23,1.34.45,2.66.66,4l.06.35c.25,1.6.5,3.21.74,4.83s.46,3.13.67,4.71a2.11,2.11,0,0,1,.05.35A440.22,440.22,0,0,1,916.19,453.69Z" transform="translate(83.81 82.6)"/><polygon class="cls-3" points="250 473.8 312.5 536.3 250 598.8 250 848.8 125 848.8 125 223.8 250 223.8 250 473.8"/><polygon class="cls-3" points="500 356.3 500 848.8 375 848.8 375 598.8 312.5 536.3 375 473.8 375 356.3 500 356.3"/><path class="cls-3" d="M663.6,413.75a39.94,39.94,0,1,0,39.94,39.94A39.92,39.92,0,0,0,663.6,413.75Zm0,59.92a20,20,0,1,1,20-20A20,20,0,0,1,663.6,473.67Z" transform="translate(83.81 82.6)"/><path class="cls-3" d="M663.6,513.6H785.45C757.51,657.53,630.79,766.19,478.69,766.19H431.81V258.07H291.19V141.19h187.5c152.1,0,278.82,108.66,306.76,252.59H663.6a59.91,59.91,0,1,0,0,119.82Z" transform="translate(83.81 82.6)"/></svg>